<svg width="36" height="36" viewBox="0 0 36 36" fill="none" xmlns="http://www.w3.org/2000/svg">
<path d="M20.4778 22.3392H15.5223C15.2594 22.3392 15.0073 22.4436 14.8215 22.6295C14.6356 22.8153 14.5312 23.0674 14.5312 23.3303V24.3214C14.5312 24.5842 14.6356 24.8363 14.8215 25.0222C15.0073 25.2081 15.2594 25.3125 15.5223 25.3125H20.4778C20.7406 25.3125 20.9927 25.2081 21.1786 25.0222C21.3644 24.8363 21.4689 24.5842 21.4689 24.3214V23.3303C21.4689 23.0674 21.3644 22.8153 21.1786 22.6295C20.9927 22.4436 20.7406 22.3392 20.4778 22.3392Z" fill="#606483"/>
<path d="M24.2969 16.7792L18.3504 10.8327C18.2574 10.7398 18.1314 10.6876 18 10.6876C17.8686 10.6876 17.7426 10.7398 17.6496 10.8327L11.7031 16.7792C11.6338 16.8485 11.5866 16.9368 11.5675 17.0329C11.5484 17.1291 11.5582 17.2287 11.5957 17.3192C11.6332 17.4097 11.6967 17.4871 11.7782 17.5416C11.8596 17.596 11.9554 17.6251 12.0534 17.6251H14.5312V19.9276C14.5314 20.1904 14.6359 20.4423 14.8217 20.6282C15.0076 20.814 15.2595 20.9185 15.5223 20.9187H20.4777C20.7405 20.9183 20.9923 20.8138 21.1781 20.628C21.3639 20.4422 21.4684 20.1904 21.4688 19.9276V17.6251H23.9466C24.0446 17.6251 24.1404 17.596 24.2218 17.5416C24.3033 17.4871 24.3668 17.4097 24.4043 17.3192C24.4418 17.2287 24.4516 17.1291 24.4325 17.0329C24.4134 16.9368 24.3662 16.8485 24.2969 16.7792Z" fill="#606483"/>
<rect x="0.5" y="0.5" width="35" height="35" rx="5.5" stroke="#D8DEEB"/>
</svg>
