<svg width="36" height="36" viewBox="0 0 36 36" fill="none" xmlns="http://www.w3.org/2000/svg">
<path d="M24.125 16.3667C23.5583 13.4917 21.0333 11.3333 18 11.3333C15.5917 11.3333 13.5 12.7 12.4583 14.7C9.95 14.9667 8 17.0917 8 19.6667C8 22.425 10.2417 24.6667 13 24.6667H23.8333C26.1333 24.6667 28 22.8 28 20.5C28 18.3 26.2917 16.5167 24.125 16.3667ZM20.9596 18.8333C21.405 18.8333 21.6281 19.3719 21.3131 19.6869L18.7071 22.2929C18.3166 22.6834 17.6834 22.6834 17.2929 22.2929L14.6869 19.6869C14.3719 19.3719 14.595 18.8333 15.0404 18.8333H16.3333V16.5C16.3333 15.9477 16.781 15.5 17.3333 15.5H18.6667C19.219 15.5 19.6667 15.9477 19.6667 16.5V18.8333H20.9596Z" fill="#606483"/>
<rect x="0.5" y="0.5" width="35" height="35" rx="5.5" stroke="#D8DEEB"/>
</svg>
