<svg width="36" height="36" viewBox="0 0 36 36" fill="none" xmlns="http://www.w3.org/2000/svg">
<path fill-rule="evenodd" clip-rule="evenodd" d="M19.7024 12.3661L20.7542 11.3143C21.0123 11.0561 21.3188 10.8513 21.6561 10.7116C21.9934 10.5719 22.3549 10.5 22.72 10.5C23.085 10.5 23.4465 10.5719 23.7838 10.7116C24.1211 10.8513 24.4276 11.0561 24.6857 11.3143C24.9439 11.5724 25.1487 11.8789 25.2884 12.2162C25.4281 12.5535 25.5 12.915 25.5 13.28C25.5 13.6451 25.4281 14.0066 25.2884 14.3439C25.1487 14.6812 24.9439 14.9877 24.6857 15.2458L23.6787 16.2528L19.7024 12.3661ZM18.7699 13.2985L12.1635 19.9049C11.7197 20.3482 11.4169 20.9129 11.2935 21.5279L10.5 25.5L14.4721 24.705C15.0871 24.582 15.6511 24.2805 16.0951 23.8365L22.7463 17.1853L18.7699 13.2985Z" fill="#606483"/>
<rect x="0.5" y="0.5" width="35" height="35" rx="5.5" stroke="#D8DEEB"/>
</svg>
